<?xml version="1.0" encoding="iso-8859-1"?>
<!-- Uploaded to: SVG Repo, www.svgrepo.com, Generator: SVG Repo Mixer Tools -->
<svg fill="#000000" height="800px" width="800px" version="1.1" id="Layer_1" xmlns="http://www.w3.org/2000/svg" xmlns:xlink="http://www.w3.org/1999/xlink" 
	 viewBox="0 0 512 512" xml:space="preserve">
<g>
	<g>
		<path d="M452.923,262.564h-31.228l-61.466-61.466c-11.158-11.159-25.992-17.303-41.773-17.303H237.9L104.94,50.835
			c-0.872-13.695-12.259-24.579-26.171-24.579c-14.478,0-26.256,11.779-26.256,26.256c0,13.912,10.883,25.299,24.579,26.171
			l105.111,105.111H98.462C44.17,183.795,0,227.965,0,282.256v150.974h68.393c8.595,30.27,36.466,52.513,69.453,52.513
			c32.987,0,60.857-22.243,69.453-52.513h97.402c8.595,30.27,36.466,52.513,69.453,52.513c32.987,0,60.857-22.243,69.453-52.513H512
			v-111.59C512,289.066,485.498,262.564,452.923,262.564z M137.846,446.359c-18.097,0-32.82-14.723-32.82-32.821
			s14.723-32.82,32.82-32.82c18.097,0,32.821,14.723,32.821,32.82S155.943,446.359,137.846,446.359z M374.154,446.359
			c-18.097,0-32.82-14.723-32.82-32.821s14.723-32.82,32.82-32.82s32.82,14.723,32.82,32.82S392.251,446.359,374.154,446.359z
			 M472.615,393.846h-29.008c-8.595-30.27-36.466-52.513-69.453-52.513c-32.987,0-60.857,22.243-69.453,52.513h-97.402
			c-8.595-30.27-36.466-52.513-69.453-52.513s-60.857,22.243-69.453,52.513H39.385v-111.59c0-32.575,26.502-59.077,59.077-59.077
			h219.995c5.259,0,10.205,2.048,13.924,5.767l73.002,73.002h47.541c10.858,0,19.692,8.834,19.692,19.692V393.846z"/>
	</g>
</g>
</svg>